<svg width="100" height="100" viewBox="0 0 100 100" fill="none" xmlns="http://www.w3.org/2000/svg">
<path d="M49.9947 99.9894C77.606 99.9894 99.9894 77.606 99.9894 49.9947C99.9894 22.3834 77.606 0 49.9947 0C22.3834 0 0 22.3834 0 49.9947C0 77.606 22.3834 99.9894 49.9947 99.9894Z" fill="#305698"/>
<path fill-rule="evenodd" clip-rule="evenodd" d="M72.6742 18.1607C72.4129 17.7911 72.0662 17.4901 71.6636 17.2832C71.261 17.0764 70.8144 16.9698 70.3617 16.9726H48.2868C45.741 16.9726 43.5982 19.4442 43.5982 22.6053V71.8151C43.5982 74.9974 45.7197 77.4478 48.2868 77.4478H76.7052C79.3466 77.4478 81.4045 74.9762 81.4045 71.8151V32.0887C81.4045 30.6143 81.4045 29.5217 72.6742 18.1607V18.1607ZM71.9317 22.8069C73.5759 24.8754 75.8884 28.1108 77.2356 30.2324H71.9317V22.8069ZM78.2964 71.8151C78.3347 72.2717 78.1914 72.7251 77.8974 73.0766C77.6035 73.4282 77.1827 73.6496 76.7264 73.6927H48.2868C47.8325 73.647 47.4144 73.4245 47.1227 73.0732C46.8309 72.7219 46.689 72.2701 46.7275 71.8151V22.616C46.7048 22.1645 46.8525 21.721 47.1413 21.3733C47.4301 21.0255 47.8389 20.799 48.2868 20.7384H68.8024V33.9663H78.2752V71.8151H78.2964Z" fill="white"/>
<path d="M51.5 63H73.5" stroke="white" stroke-width="1.72" stroke-linecap="round"/>
<path d="M51.5 58H74" stroke="white" stroke-width="1.72" stroke-linecap="round"/>
<path d="M51.5 68H74" stroke="white" stroke-width="1.72" stroke-linecap="round"/>
<path d="M51.5 53H73.5" stroke="white" stroke-width="1.72" stroke-linecap="round"/>
<path d="M51.5 48H74" stroke="white" stroke-width="1.72" stroke-linecap="round"/>
<path d="M51.5 43H73.5" stroke="white" stroke-width="1.72" stroke-linecap="round"/>
<path d="M51.5 38H74" stroke="white" stroke-width="1.72" stroke-linecap="round"/>
<path d="M51.5 33H64.9" stroke="white" stroke-width="1.72" stroke-linecap="round"/>
<path d="M51.5 28H64.9" stroke="white" stroke-width="1.72" stroke-linecap="round"/>
<path d="M36.3 46.9762C36.2309 46.9057 36.1483 46.8496 36.0573 46.8113C35.9662 46.7731 35.8684 46.7533 35.7696 46.7533C35.6708 46.7533 35.573 46.7731 35.4819 46.8113C35.3909 46.8496 35.3084 46.9057 35.2392 46.9762L20.261 63.5032L15.4026 58.1356C15.3342 58.0638 15.2519 58.0065 15.1608 57.9674C15.0696 57.9283 14.9714 57.9081 14.8722 57.9081C14.773 57.9081 14.6748 57.9283 14.5836 57.9674C14.4924 58.0065 14.4102 58.0638 14.3418 58.1356C14.203 58.3046 14.1272 58.5164 14.1272 58.735C14.1272 58.9536 14.203 59.1654 14.3418 59.3343L19.7094 65.349C19.8705 65.4942 20.0762 65.5803 20.2928 65.5929C20.5097 65.582 20.716 65.4957 20.8762 65.349L36.3 48.1855C36.4396 48.0149 36.5159 47.8013 36.5159 47.5809C36.5159 47.3604 36.4396 47.1468 36.3 46.9762Z" stroke="white" stroke-width="2.3" stroke-linejoin="round"/>
<path d="M34.4648 34.1514C34.3201 34.0187 34.1308 33.9451 33.9345 33.9451C33.7381 33.9451 33.5488 34.0187 33.4041 34.1514L18.4364 49.0023L13.578 44.197C13.431 44.0973 13.2539 44.052 13.0771 44.0688C12.9003 44.0856 12.7349 44.1635 12.6093 44.289C12.4837 44.4146 12.4059 44.58 12.389 44.7568C12.3722 44.9336 12.4176 45.1108 12.5172 45.2578L17.8848 50.6996C18.0538 50.8269 18.257 50.9008 18.4682 50.9117C18.6768 50.9034 18.8774 50.8291 19.0411 50.6996L34.4648 35.2121C34.5932 35.0652 34.6639 34.8768 34.6639 34.6817C34.6639 34.4867 34.5932 34.2983 34.4648 34.1514V34.1514Z" stroke="white" stroke-width="2.3" stroke-linejoin="round"/>
</svg>
