<svg width="100" height="100" viewBox="0 0 100 100" fill="none" xmlns="http://www.w3.org/2000/svg">
<path fill-rule="evenodd" clip-rule="evenodd" d="M0.914698 50C0.929419 40.3115 3.82073 30.8448 9.22323 22.7963C14.6257 14.7477 22.2969 8.4786 31.2674 4.78116C40.2379 1.08372 50.1049 0.123913 59.6216 2.02305C69.1383 3.92218 77.8775 8.59502 84.7348 15.451C91.592 22.307 96.2596 31.0384 98.1475 40.5418C100.035 50.0452 99.0591 59.8941 95.3417 68.8437C91.6244 77.7933 85.333 85.4419 77.2626 90.8231C69.1922 96.2042 59.705 99.0762 50 99.0762C36.9723 99.065 24.4826 93.8885 15.2776 84.6852C6.07261 75.4819 0.906232 63.0055 0.914698 50V50Z" fill="#305698"/>
<path d="M0.914698 50C0.929419 40.3115 3.82073 30.8448 9.22323 22.7963C14.6257 14.7477 22.2969 8.4786 31.2674 4.78116C40.2379 1.08372 50.1049 0.123913 59.6216 2.02305C69.1383 3.92218 77.8775 8.59502 84.7348 15.451C91.592 22.307 96.2596 31.0384 98.1475 40.5418C100.035 50.0452 99.0591 59.8941 95.3417 68.8437C91.6244 77.7933 85.333 85.4419 77.2626 90.8231C69.1922 96.2042 59.705 99.0762 50 99.0762C36.9723 99.065 24.4826 93.8885 15.2776 84.6852C6.07261 75.4819 0.906232 63.0055 0.914698 50V50Z" stroke="#305698" stroke-width="1.73" stroke-linejoin="round"/>
<path fill-rule="evenodd" clip-rule="evenodd" d="M76.4199 25.2982C76.357 24.9062 76.1951 24.5368 75.9494 24.2247C75.7038 23.9126 75.3825 23.6681 75.016 23.5143C74.5849 23.3602 74.1212 23.3203 73.6701 23.3985C73.219 23.4766 72.7959 23.6702 72.442 23.9603C63.3376 30.6284 56.3284 30.8514 49.7873 31.0743C44.4693 31.2973 39.0449 31.5203 33.2057 35.3215C30.6879 36.9582 28.5793 39.1491 27.0416 41.7259C25.5039 44.3028 24.5781 47.1971 24.3352 50.1867C23.8707 55.5621 25.5485 60.9036 29.0045 65.0518C23.6333 69.7237 23.3993 73.9391 23.3993 74.385C23.4297 75.046 23.7185 75.6686 24.2038 76.1193C24.689 76.57 25.3319 76.8127 25.9945 76.7953V76.7953C26.3105 76.7957 26.6232 76.7319 26.9137 76.6078C27.2042 76.4837 27.4664 76.3019 27.6843 76.0735C27.9022 75.845 28.0713 75.5747 28.1812 75.279C28.2911 74.9832 28.3396 74.6682 28.3238 74.3532C29.0692 71.9679 30.5369 69.872 32.525 68.354C36.5733 71.5671 41.6057 73.2917 46.7773 73.2383C53.2379 73.2123 59.4355 70.6804 64.0608 66.1773C72.9313 57.959 79.9404 41.0658 76.4199 25.2982ZM60.5616 62.8433C52.8505 70.1697 41.6401 70.6156 34.3969 63.5122C32.6176 61.9393 31.2274 59.9764 30.3352 57.7774C29.4429 55.5783 29.073 53.2029 29.2543 50.8372C29.4357 48.4715 30.1633 46.1799 31.3803 44.142C32.5973 42.1041 34.2706 40.3752 36.2689 39.0909C40.7041 36.2028 44.6713 35.9798 50.0957 35.7569C56.4029 35.7569 63.412 35.3109 72.2825 29.9807C73.6865 43.0939 67.8473 56.1964 60.5829 62.8964L60.5616 62.8433ZM60.7849 43.2956C60.8538 43.9301 60.669 44.566 60.2706 45.0651C59.8722 45.5642 59.2926 45.8861 58.6577 45.9607C46.0753 48.1799 41.1721 59.5093 41.1721 59.5093C41.0394 60.0093 40.7285 60.4438 40.2976 60.7312C39.8668 61.0186 39.3457 61.1391 38.8322 61.0701C38.5092 61.0807 38.1894 61.0036 37.9068 60.8471C37.3391 60.6471 36.8733 60.2317 36.6105 59.691C36.3476 59.1504 36.309 58.528 36.5029 57.959C38.443 53.6366 41.4168 49.8559 45.1629 46.9493C48.9091 44.0426 53.313 42.0989 57.9877 41.2888C58.3041 41.2297 58.6293 41.2353 58.9435 41.3052C59.2578 41.375 59.5546 41.5077 59.816 41.6953C60.0774 41.8828 60.2981 42.1213 60.4646 42.3964C60.6312 42.6715 60.7401 42.9774 60.7849 43.2956V43.2956Z" fill="white"/>
</svg>
