<svg xmlns="http://www.w3.org/2000/svg" xmlns:xlink="http://www.w3.org/1999/xlink" viewBox="0 0 481.2 102.87"><defs><style>.cls-1{isolation:isolate;}.cls-2{fill:#fff;}.cls-3{fill:#4fb1cb;}.cls-4{fill:url(#linear-gradient);}.cls-5{fill:url(#New_Gradient_Swatch);}.cls-6{fill:url(#New_Gradient_Swatch-2);}.cls-7{fill:url(#New_Gradient_Swatch-3);}.cls-14,.cls-8{opacity:0.5;mix-blend-mode:multiply;}.cls-14,.cls-9{fill:#61a744;}.cls-10{fill:url(#New_Gradient_Swatch_blue);}.cls-11{fill:#7fbc42;}.cls-12{fill:#008fb4;}.cls-13{fill:url(#New_Gradient_Swatch-4);}.cls-15{fill:url(#New_Gradient_Swatch-5);}.cls-16{fill:#231f20;}.cls-17{fill:#fdb515;}.cls-18{fill:#4d709c;}.cls-19{fill:#a6a8ab;}</style><linearGradient id="linear-gradient" x1="436.3" y1="104.97" x2="436.3" y2="40.56" gradientUnits="userSpaceOnUse"><stop offset="0" stop-color="#005c97"/><stop offset="1" stop-color="#008fb4"/></linearGradient><linearGradient id="New_Gradient_Swatch" x1="283.69" y1="106.32" x2="283.69" y2="59.01" gradientUnits="userSpaceOnUse"><stop offset="0" stop-color="#61a744"/><stop offset="1" stop-color="#7fbc42"/></linearGradient><linearGradient id="New_Gradient_Swatch-2" x1="251.15" y1="105.1" x2="251.15" y2="61.68" xlink:href="#New_Gradient_Swatch"/><linearGradient id="New_Gradient_Swatch-3" x1="334.54" y1="106.15" x2="334.54" y2="59.01" xlink:href="#New_Gradient_Swatch"/><linearGradient id="New_Gradient_Swatch_blue" x1="491.5" y1="106.34" x2="491.5" y2="40.56" xlink:href="#linear-gradient"/><linearGradient id="New_Gradient_Swatch-4" x1="385.48" y1="105.21" x2="385.48" y2="59.09" xlink:href="#New_Gradient_Swatch"/><linearGradient id="New_Gradient_Swatch-5" x1="221.44" y1="106.54" x2="221.44" y2="59.01" xlink:href="#New_Gradient_Swatch"/></defs><title>BCID_CleanBC_rev_tagline_colour</title><g class="cls-1"><g id="Layer_1" data-name="Layer 1"><path class="cls-2" d="M207.74,124.19A5.61,5.61,0,0,0,202,130a5.42,5.42,0,0,0,5.6,5.6h0a6.11,6.11,0,0,0,3.9-1.4,5.63,5.63,0,0,0,1.92-4.45A5.39,5.39,0,0,0,207.74,124.19Zm-.09,10.33h0a4.63,4.63,0,0,1,.11-9.24,4.62,4.62,0,0,1-.09,9.24Z" transform="translate(-39.87 -36.4)"/><path class="cls-2" d="M224.94,132.66v-8.21h-1.29V131a3.34,3.34,0,0,1-.26,1.21,3.89,3.89,0,0,1-3.47,2.21c-2.08,0-3.13-1.39-3.13-4.13v-5.87H215.5v6.09c0,4.41,2.59,5.07,4.13,5.07a4.67,4.67,0,0,0,4.11-2.26l.07,2H225v-.11C225,134.44,224.94,133.62,224.94,132.66Z" transform="translate(-39.87 -36.4)"/><path class="cls-2" d="M232.52,124.19a3.54,3.54,0,0,0-3.25,2.34l0-2.08H228v.11c.06,1,.09,2.14.09,3.44v7.34h1.29v-5.89a5.15,5.15,0,0,1,.11-1c.35-1.83,1.49-3,2.89-3a2.79,2.79,0,0,1,.6,0l.12,0v-1.2l-.07,0A1.86,1.86,0,0,0,232.52,124.19Z" transform="translate(-39.87 -36.4)"/><path class="cls-2" d="M244.81,124.19a4.71,4.71,0,0,0-4.08,2.21l-.08-2h-1.23v.11c.06.79.09,1.6.09,2.57v8.21h1.29v-6.62a3,3,0,0,1,.17-.93,3.87,3.87,0,0,1,3.54-2.47c2.94,0,3.26,2.69,3.26,3.84v6.18h1.29v-6.18C249.07,124.43,245.52,124.19,244.81,124.19Z" transform="translate(-39.87 -36.4)"/><path class="cls-2" d="M259.64,132.66v-3.88c0-3-1.38-4.59-4.12-4.59a6.56,6.56,0,0,0-3.58,1l-.07,0,.44,1,.1-.07a5.32,5.32,0,0,1,3-.87h0a2.85,2.85,0,0,1,2.07.72,3.36,3.36,0,0,1,.82,2.36v.15c-3,0-5.12.53-6.27,1.67a3.15,3.15,0,0,0,2.54,5.41,4.88,4.88,0,0,0,3.84-1.8l.16,1.53h1.21l0-.12A16.57,16.57,0,0,1,259.64,132.66Zm-1.28-3v2.17a1.65,1.65,0,0,1-.13.58,3.66,3.66,0,0,1-3.52,2.13,2.17,2.17,0,0,1-1.6-3.7c1-1,3-1.19,4.71-1.19Z" transform="translate(-39.87 -36.4)"/><path class="cls-2" d="M264.39,122.06l-1.29.39v2h-2v1.07h2v6.6a3.94,3.94,0,0,0,.73,2.65,2.57,2.57,0,0,0,2.06.84,4.54,4.54,0,0,0,1.69-.3l.07,0-.17-1-.11,0a4.11,4.11,0,0,1-1.37.19c-1.09,0-1.61-.72-1.61-2.21v-6.74h3.38v-1.07h-3.38Z" transform="translate(-39.87 -36.4)"/><path class="cls-2" d="M279,132.66v-8.21H277.7V131a3.34,3.34,0,0,1-.26,1.21,3.89,3.89,0,0,1-3.47,2.21c-2.07,0-3.13-1.39-3.13-4.13v-5.87h-1.29v6.09c0,4.41,2.59,5.07,4.13,5.07a4.71,4.71,0,0,0,4.12-2.25l.06,2h1.23v-.11C279,134.45,279,133.63,279,132.66Z" transform="translate(-39.87 -36.4)"/><path class="cls-2" d="M286.57,124.19a3.52,3.52,0,0,0-3.24,2.34l0-2.08h-1.21v.11c.06,1,.09,2.15.09,3.44v7.34h1.29v-5.89a5.14,5.14,0,0,1,.1-1c.36-1.83,1.49-3,2.89-3a2.79,2.79,0,0,1,.6,0l.12,0v-1.2l-.07,0A1.86,1.86,0,0,0,286.57,124.19Z" transform="translate(-39.87 -36.4)"/><path class="cls-2" d="M293,124.19c-3.21,0-5.44,2.45-5.44,6a5.27,5.27,0,0,0,5.57,5.45,9.14,9.14,0,0,0,3.87-.75l.08,0-.35-1-.1,0a7.25,7.25,0,0,1-3.39.66,4.16,4.16,0,0,1-4.42-4.48h8.86l0-.07a2.61,2.61,0,0,0,0-.69C297.78,127.35,296.78,124.19,293,124.19Zm-4.09,4.74a4,4,0,0,1,3.95-3.65,3.43,3.43,0,0,1,2.55.93,4.07,4.07,0,0,1,1,2.72Z" transform="translate(-39.87 -36.4)"/><path class="cls-2" d="M300.11,133.34a1.07,1.07,0,0,0-1.06,1.14,1.14,1.14,0,0,0,.31.82,1,1,0,0,0,.7.31h0a1.09,1.09,0,0,0,1.05-1.13A1.05,1.05,0,0,0,300.11,133.34Z" transform="translate(-39.87 -36.4)"/><path class="cls-2" d="M312.71,124.19A5.61,5.61,0,0,0,307,130a5.42,5.42,0,0,0,5.6,5.6h0a6.11,6.11,0,0,0,3.9-1.4,5.63,5.63,0,0,0,1.92-4.45A5.39,5.39,0,0,0,312.71,124.19Zm-.09,10.33h0a4.63,4.63,0,0,1,.11-9.24,4.62,4.62,0,0,1-.09,9.24Z" transform="translate(-39.87 -36.4)"/><path class="cls-2" d="M329.91,132.66v-8.21h-1.29V131a3.34,3.34,0,0,1-.26,1.21,3.89,3.89,0,0,1-3.47,2.21c-2.08,0-3.13-1.39-3.13-4.13v-5.87h-1.29v6.09c0,4.41,2.58,5.07,4.13,5.07a4.69,4.69,0,0,0,4.11-2.25l.06,2H330v-.11C329.93,134.45,329.91,133.63,329.91,132.66Z" transform="translate(-39.87 -36.4)"/><path class="cls-2" d="M337.49,124.19a3.54,3.54,0,0,0-3.25,2.34l0-2.08H333v.11c.06,1,.09,2.15.09,3.44v7.34h1.29v-5.89a5.15,5.15,0,0,1,.11-1c.35-1.83,1.49-3,2.89-3a2.79,2.79,0,0,1,.6,0l.12,0v-1.2l-.07,0A1.86,1.86,0,0,0,337.49,124.19Z" transform="translate(-39.87 -36.4)"/><path class="cls-2" d="M350.18,124.19a5,5,0,0,0-4.46,2.32l-.08-2.06h-1.25v.11c.06,1,.09,2.15.09,3.44v11.2h1.29v-5.61a4.82,4.82,0,0,0,4.13,2c3.24,0,5.51-2.44,5.51-5.94A5.24,5.24,0,0,0,350.18,124.19Zm-.23,1.09a4.18,4.18,0,0,1,4.18,4.44c0,3-1.65,4.8-4.31,4.8a4.08,4.08,0,0,1-3.93-2.76,3.43,3.43,0,0,1-.11-.82v-1.89a3.89,3.89,0,0,1,.19-.91A4.08,4.08,0,0,1,350,125.28Z" transform="translate(-39.87 -36.4)"/><path class="cls-2" d="M362.36,124.19A5.61,5.61,0,0,0,356.6,130a5.42,5.42,0,0,0,5.6,5.6h0a6.06,6.06,0,0,0,3.9-1.4,5.6,5.6,0,0,0,1.92-4.45A5.38,5.38,0,0,0,362.36,124.19Zm-.09,10.33h0a4.33,4.33,0,0,1-4.35-4.58c0-2.32,1.38-4.66,4.47-4.66a4.62,4.62,0,0,1-.09,9.24Z" transform="translate(-39.87 -36.4)"/><path class="cls-2" d="M382,130.75c-.43,1.25-.75,2.21-1,3.05-.32-1-.66-2-1.05-3.07l-2.28-6.21,0-.07H376.4l-2.4,6.3c-.45,1.19-.83,2.18-1.11,3.06-.25-.89-.53-1.84-.91-3.05l-2-6.31h-1.35l3.59,10.89h1.11l2.37-5.94c.42-1.08.89-2.33,1.26-3.58.3,1.09.7,2.22,1.2,3.55l2.21,6h1.12l3.89-10.75.05-.14h-1.32Z" transform="translate(-39.87 -36.4)"/><path class="cls-2" d="M391.36,124.19c-3.2,0-5.44,2.45-5.44,6a5.28,5.28,0,0,0,5.58,5.45,9.14,9.14,0,0,0,3.87-.75l.08,0-.35-1-.1,0a7.25,7.25,0,0,1-3.39.66,4.16,4.16,0,0,1-4.42-4.48h8.86l0-.07a2.61,2.61,0,0,0,.05-.69C396.12,127.35,395.12,124.19,391.36,124.19Zm-4.09,4.74a4,4,0,0,1,4-3.65,3.41,3.41,0,0,1,2.54.93,4,4,0,0,1,1,2.72Z" transform="translate(-39.87 -36.4)"/><path class="cls-2" d="M403.35,124.28l-.07,0a1.86,1.86,0,0,0-.54-.07,3.52,3.52,0,0,0-3.24,2.34l0-2.08h-1.21v.11c.06,1,.09,2.15.09,3.44v7.34h1.29v-5.89a5.14,5.14,0,0,1,.1-1c.36-1.83,1.49-3,2.89-3a2.79,2.79,0,0,1,.6,0l.12,0Z" transform="translate(-39.87 -36.4)"/><path class="cls-2" d="M404.37,133.34a1.06,1.06,0,0,0-1.06,1.14,1.14,1.14,0,0,0,.31.82,1,1,0,0,0,.7.31h0a1.09,1.09,0,0,0,1.06-1.13A1.05,1.05,0,0,0,404.37,133.34Z" transform="translate(-39.87 -36.4)"/><path class="cls-3" d="M417.55,135.58c-3.37,0-6-2.21-6-5.67S414,124,417.78,124c3.59,0,6,2.39,6,5.65,0,3.91-3,5.9-6.19,5.9Zm.09-2.08c1.74,0,3.12-1.33,3.12-3.73,0-1.76-.92-3.66-3.07-3.66s-3.17,1.81-3.17,3.71c0,2.21,1.31,3.68,3.1,3.68Z" transform="translate(-39.87 -36.4)"/><path class="cls-3" d="M436.21,132c0,1.33,0,2.44.09,3.32h-2.56l-.13-1.83h-.07a4.32,4.32,0,0,1-3.87,2.1c-2,0-4.18-1.1-4.18-5V124.3h2.91v5.81c0,1.92.68,3.12,2.31,3.12a2.6,2.6,0,0,0,2.42-1.63,1.89,1.89,0,0,0,.16-.81V124.3h2.92Z" transform="translate(-39.87 -36.4)"/><path class="cls-3" d="M439.46,128c0-1.62,0-2.69-.09-3.68h2.51l.09,2.24h.09a3.52,3.52,0,0,1,3.28-2.51,3.2,3.2,0,0,1,.7.07v2.69a4.72,4.72,0,0,0-.93-.09,2.52,2.52,0,0,0-2.66,2.17,4,4,0,0,0-.07.77v5.67h-2.92Z" transform="translate(-39.87 -36.4)"/><path class="cls-3" d="M453.43,135.31v-8.84h-1.51V124.3h1.51v-.45a5.29,5.29,0,0,1,1.43-3.92,4.54,4.54,0,0,1,3-1.08,6.11,6.11,0,0,1,1.83.27l-.16,2.22a3.52,3.52,0,0,0-1.27-.21c-1.46,0-2,1.18-2,2.6v.57h2.55v2.17h-2.53v8.84Z" transform="translate(-39.87 -36.4)"/><path class="cls-3" d="M471.52,132c0,1.33,0,2.44.09,3.32h-2.55l-.14-1.83h-.07a4.28,4.28,0,0,1-3.86,2.1c-2,0-4.19-1.1-4.19-5V124.3h2.92v5.81c0,1.92.68,3.12,2.31,3.12a2.61,2.61,0,0,0,2.42-1.63,1.89,1.89,0,0,0,.16-.81V124.3h2.91Z" transform="translate(-39.87 -36.4)"/><path class="cls-3" d="M478.06,121.45v2.85h2.82v2.17h-2.82v4.59c0,1.36.29,2.15,1.51,2.15a4,4,0,0,0,1.2-.14l.07,2.2a7.44,7.44,0,0,1-2.2.31,3.49,3.49,0,0,1-2.53-1,4.62,4.62,0,0,1-.88-3.14v-5h-1.65V124.3h1.65v-2.1Z" transform="translate(-39.87 -36.4)"/><path class="cls-3" d="M493.88,132c0,1.33,0,2.44.09,3.32h-2.55l-.14-1.83h-.06a4.32,4.32,0,0,1-3.87,2.1c-2,0-4.19-1.1-4.19-5V124.3h2.92v5.81c0,1.92.68,3.12,2.31,3.12a2.61,2.61,0,0,0,2.42-1.63,1.89,1.89,0,0,0,.16-.81V124.3h2.91Z" transform="translate(-39.87 -36.4)"/><path class="cls-3" d="M497.14,128c0-1.62,0-2.69-.09-3.68h2.51l.09,2.24h.09A3.52,3.52,0,0,1,503,124a3.2,3.2,0,0,1,.7.07v2.69a4.8,4.8,0,0,0-.93-.09,2.53,2.53,0,0,0-2.67,2.17,5,5,0,0,0-.07.77v5.67h-2.91Z" transform="translate(-39.87 -36.4)"/><path class="cls-3" d="M507.58,130.61c.09,1.85,1.77,2.8,3.71,2.8a9.47,9.47,0,0,0,3.39-.54l.46,2a11.6,11.6,0,0,1-4.23.74c-3.8,0-6.09-2.24-6.09-5.63a5.68,5.68,0,0,1,5.82-5.92c4,0,5.15,3.23,5.15,5.45a4.53,4.53,0,0,1-.11,1.13Zm5.45-2a2.46,2.46,0,0,0-2.58-2.63,2.9,2.9,0,0,0-2.87,2.63Z" transform="translate(-39.87 -36.4)"/><path class="cls-3" d="M519.24,135.58a1.83,1.83,0,1,1,1.83-1.83,1.74,1.74,0,0,1-1.83,1.83Z" transform="translate(-39.87 -36.4)"/><path class="cls-4" d="M458.29,59.24c0,5-2,9.75-7.05,12.42C457.6,74,459.92,82,459.92,86c0,14.35-9.07,19-20.31,19H412.67V40.56h26.94C450.31,40.56,458.29,46.26,458.29,59.24Zm-35,7.18H439c6.44,0,8.53-3.22,8.53-6.9,0-3-2-7.92-8.53-7.92H423.34Zm0,27.23H439c4.19,0,10.16-1.65,10.16-7.72,0-5.8-6-8.84-10.16-8.84H423.34Z" transform="translate(-39.87 -36.4)"/><path class="cls-5" d="M284.19,59c-14,0-23.33,9.41-23.33,23.42,0,14.74,9.26,23.89,24.16,23.89,7.16,0,14.13-2.57,18.42-6.74l-6.12-6.17c-3,2.64-8.22,4-12.12,4-7.83,0-13.41-4.11-14.23-10.49l-.11-.85h35.53c.68-8.79-1.14-15.88-5.28-20.52C297.28,61.28,291.43,59,284.19,59ZM270.91,78.12l.26-1c1.65-6,6.65-9.54,13.39-9.54,7.18,0,11.73,3.51,12.49,9.65l.1.84Z" transform="translate(-39.87 -36.4)"/><path class="cls-6" d="M246.46,50.34V105.1h9.38V40.56a13,13,0,0,0-6.05,2.56C246.7,45.49,246.47,50.11,246.46,50.34Z" transform="translate(-39.87 -36.4)"/><path class="cls-7" d="M349.93,64.4A24.44,24.44,0,0,0,334.54,59c-13.35,0-24.18,10.55-24.18,23.57s10.83,23.57,24.18,23.57a24.44,24.44,0,0,0,15.39-5.39v4.51h8.79V59h-8.79ZM334.54,97a14.37,14.37,0,1,1,14.74-14.37A14.56,14.56,0,0,1,334.54,97Z" transform="translate(-39.87 -36.4)"/><g class="cls-8"><path class="cls-9" d="M334.54,106.15a24.44,24.44,0,0,0,15.39-5.39v4.51h8.79V64.57l-15.11,6.69a14.21,14.21,0,0,1,5.67,11.32,14.74,14.74,0,0,1-29.48,0c0-.28,0-.55,0-.82l-9.23,4.06A24,24,0,0,0,334.54,106.15Z" transform="translate(-39.87 -36.4)"/><path class="cls-9" d="M303.44,99.58l-6.12-6.17c-3,2.64-8.22,4-12.12,4l-.74,0-12.85,5.71A26.9,26.9,0,0,0,285,106.32C292.18,106.32,299.15,103.75,303.44,99.58Z" transform="translate(-39.87 -36.4)"/></g><path class="cls-10" d="M519.28,97a31.65,31.65,0,0,1-23.2,9.37c-22.68,0-32.28-16.13-32.37-32.53S474,40.56,496.08,40.56A31,31,0,0,1,518.5,50.2l-7.68,7.66a20.59,20.59,0,0,0-14.74-6c-14.75,0-21.11,11.36-21,21.9s5.94,21.35,21,21.35a22.11,22.11,0,0,0,15.35-6.39Z" transform="translate(-39.87 -36.4)"/><path class="cls-11" d="M307.24,64.59a37.94,37.94,0,0,0,0-7.24,18.58,18.58,0,0,0-.9-4.8,29.19,29.19,0,0,0,4.36-1.8,49,49,0,0,0,4.44-2.5,22.32,22.32,0,0,1-2.52,8.22,45.92,45.92,0,0,1-5.39,8.12" transform="translate(-39.87 -36.4)"/><path class="cls-12" d="M306,60.68a37.8,37.8,0,0,0-5.08-5.16,18.47,18.47,0,0,0-4-2.78,19.28,19.28,0,0,0,1.69-5.12c.54-3,.75-5.37.75-5.37a30.38,30.38,0,0,1,4.78,8.87A45.79,45.79,0,0,1,306,60.68" transform="translate(-39.87 -36.4)"/><path class="cls-13" d="M385.3,58.75c-7,0-20.33,3.61-20.33,17.24v29.17h10V78.71a10.52,10.52,0,0,1,2.37-7.53c1.85-2.06,4.63-3.1,8.28-3.1,3.33,0,5.93,1,7.73,2.89a10.87,10.87,0,0,1,2.58,7.56v26.63H406V75.89C406,75.2,405.53,58.75,385.3,58.75Z" transform="translate(-39.87 -36.4)"/><path class="cls-14" d="M385.3,58.75c-7,0-20.33,3.61-20.33,17.24v29.17h10V78.71a10.52,10.52,0,0,1,2.37-7.53c1.85-2.06,4.63-3.1,8.28-3.1,3.33,0,5.93,1,7.73,2.89a10.87,10.87,0,0,1,2.58,7.56v26.63H406V75.89C406,75.2,405.53,58.75,385.3,58.75Z" transform="translate(-39.87 -36.4)"/><path class="cls-15" d="M225.87,97.26a14.49,14.49,0,1,1,0-29,15,15,0,0,1,9.18,3.1l6.34-7A24.7,24.7,0,0,0,225.87,59c-13.46,0-24.37,10.64-24.37,23.76s10.91,23.77,24.37,23.77a24.65,24.65,0,0,0,15.52-5.44l-6.33-7A15,15,0,0,1,225.87,97.26Z" transform="translate(-39.87 -36.4)"/><path class="cls-16" d="M339.33,83.05" transform="translate(-39.87 -36.4)"/><g id="British_Columbia" data-name="British Columbia"><path id="A" class="cls-2" d="M153.16,134.8l-.08-.06-.31,0c-.88-.2-1.22-1.26-1.54-2L146.7,122c0-.13-.14-.41-.32-.41s-.31.3-.38.47l-4.33,10.7a7.23,7.23,0,0,1-.85,1.69,1.23,1.23,0,0,1-.83.3l-.36,0-.53.05a.37.37,0,0,0,.05.51l.83,0c.6,0,1.19-.08,1.78-.08s1,0,1.5.07l.83,0a.37.37,0,0,0,0-.51l-.57-.06-.3,0c-.52-.05-1.17-.15-1.17-.72a3.62,3.62,0,0,1,.31-1.17l.67-1.61c.34-.77.21-.85,1.1-.85h3c1.08,0,.92,0,1.39,1.09l.72,1.62a3.61,3.61,0,0,1,.31,1.05c0,.54-.58.57-1.13.62l-.34,0-.54,0a.37.37,0,0,0,0,.51l.84,0c.64,0,1.28-.07,1.9-.07.78,0,1.57,0,2.35.07h0c.26,0,0,0,.34,0A.37.37,0,0,0,153.16,134.8Zm-5.94-5h-2.64c-.09,0-.83.09-.83-.13a1.17,1.17,0,0,1,.07-.25l1.59-3.93c0-.11.2-.65.39-.65s.32.56.37.65l1.56,3.67s.16.38.16.47C147.89,129.83,147.36,129.76,147.22,129.76Z" transform="translate(-39.87 -36.4)"/><path id="I" class="cls-2" d="M134,124.92c0-2.16,0-2.5-1.34-2.61l-.55,0c-.13-.08-.09-.44,0-.51,1.09,0,1.84.06,2.77.06s1.62,0,2.72-.06c.13.07.18.43,0,.51l-.54,0c-1.3.11-1.35.45-1.35,2.61v7.25c0,2.15.05,2.44,1.35,2.58l.54.06c.14.08.09.45,0,.51-1.1,0-1.85-.06-2.72-.06s-1.68,0-2.77.06a.37.37,0,0,1,0-.51l.55-.06c1.3-.14,1.34-.43,1.34-2.58Z" transform="translate(-39.87 -36.4)"/><path id="B" class="cls-2" d="M120.68,124.34c0-1.52-.09-1.91-1.16-2l-.77-.08c-.09-.07-.13-.49,0-.5,1.28-.09,2.91-.16,5.12-.16a10.42,10.42,0,0,1,4,.57,2.7,2.7,0,0,1,1.81,2.57c0,1.48-1,2.25-2.43,2.82,0,.21.19.27.45.31a3.59,3.59,0,0,1,3.2,3.43c0,2.39-2.05,4-6.35,4-.69,0-1.86-.06-2.86-.06s-1.86,0-2.74.06a.36.36,0,0,1,0-.51l.43-.06c1.27-.19,1.31-.42,1.31-2.57Zm2,2.74c0,.57,0,.61,1.24.57,2.43-.08,3.74-.7,3.74-2.63s-1.74-2.77-3.55-2.77a3.52,3.52,0,0,0-1.1.12c-.24.06-.33.16-.33.53Zm0,4.77a3.58,3.58,0,0,0,.5,2.24,2.54,2.54,0,0,0,1.88.57c2.13,0,3.75-.82,3.75-2.87,0-1.63-1-3.52-4.75-3.52-1.29,0-1.38.12-1.38.53Z" transform="translate(-39.87 -36.4)"/><path id="M" class="cls-2" d="M116.44,134.75l-.32,0a.87.87,0,0,1-.6-.24c-.29-.3-.27-1.17-.27-1.51v-8.92c0-.39-.09-1.23.19-1.53a1.11,1.11,0,0,1,.71-.21h0l.3,0,.57,0c.13-.08.09-.44,0-.51l-.83,0h-2.41c-.26,0-.49,0-.64.28l-4.89,10.19-4.32-9.84c-.15-.35-.17-.63-.62-.63h-2.5l-.85,0c-.14.07-.18.43,0,.51l.57,0,.32,0c.94.06,1,.27.92,1.25l-.74,9.57c-.07,1-.12,1.47-1.12,1.56l-.33,0-.57.06a.37.37,0,0,0,0,.51l.82,0c.51,0,1-.07,1.55-.07s1.12.05,1.69.07h0l.83,0a.37.37,0,0,0,.05-.51l-.57-.06-.31,0c-1.45-.1-1.42-1.12-1.33-2.38l.69-8.9h.16l4.68,10.95c0,.16.12.42.36.42s.29-.24.36-.39l5.27-11.24h.17V133c0,.39.05,1.19-.36,1.49a2.87,2.87,0,0,1-.9.25l-.3,0-.57.06a.37.37,0,0,0,0,.51l.82,0c.77,0,1.55-.07,2.33-.07.56,0,1.65.05,1.65.05l.86,0a.37.37,0,0,0,.05-.51Z" transform="translate(-39.87 -36.4)"/><path id="U" class="cls-2" d="M95.6,126.89c0-1.27,0-3.61-.41-4.22a1.38,1.38,0,0,0-1.08-.43l-.53,0a.36.36,0,0,1,0-.49c.82.05,1.62.07,2.46.07s1.49,0,2.26-.07a.34.34,0,0,1,0,.49l-.52,0a1.3,1.3,0,0,0-1.08.49,17.36,17.36,0,0,0-.3,4.16v2.3A6.79,6.79,0,0,1,95,134.05a5.87,5.87,0,0,1-4.12,1.49,6.44,6.44,0,0,1-4-1.12c-1.14-.9-1.68-2.38-1.68-4.81v-4.8c0-2.12,0-2.46-1.3-2.57l-.54,0c-.13-.08-.08-.42,0-.49,1.08.05,1.81.07,2.67.07s1.6,0,2.66-.07c.13.07.17.41,0,.49l-.52,0c-1.25.11-1.29.45-1.29,2.57v4.4c0,3.27,1.08,5.43,4.38,5.43,3.13,0,4.31-2.32,4.31-5.41Z" transform="translate(-39.87 -36.4)"/><path id="L" class="cls-2" d="M74,124.88c0-2.14,0-2.46-1.46-2.57l-.56,0c-.13-.08-.09-.44,0-.51,1.25,0,2,.06,2.91.06s1.63,0,2.75-.06c.13.07.18.43,0,.51l-.53,0c-1.32.11-1.37.43-1.37,2.57V132c0,1.28.07,1.81.47,2.2.25.22.67.47,2.44.47s2.38-.08,2.73-.27a4.31,4.31,0,0,0,1.48-2c.14-.1.56,0,.56.12a14.63,14.63,0,0,1-.94,2.85c-1.14,0-3.27-.06-5.57-.06H75c-.94,0-1.66,0-2.91.06a.37.37,0,0,1,0-.51l.67-.06c1.3-.12,1.35-.41,1.35-2.54Z" transform="translate(-39.87 -36.4)"/><path id="O" class="cls-2" d="M56.46,128.64c0-4.08,3.21-7.19,7.61-7.19,4.94,0,7.42,3.4,7.42,7a7.14,7.14,0,0,1-7.42,7.11C59.33,135.54,56.46,132.3,56.46,128.64Zm12.89.42c0-3.36-1.56-7-5.64-7-2.22,0-5.11,1.45-5.11,5.9,0,3,1.54,6.93,5.75,6.93C66.92,134.91,69.35,133.07,69.35,129.06Z" transform="translate(-39.87 -36.4)"/><path id="C" class="cls-2" d="M43,120.69a10.67,10.67,0,0,1,6.66-2.09,19.05,19.05,0,0,1,4.37.59,2.08,2.08,0,0,0,.69.1c0,.56.15,2.11.34,3.61a.51.51,0,0,1-.66,0c-.37-1.67-1.48-3.59-5.06-3.59-3.77,0-7,2.38-7,7.47s3.28,8,7.33,8a5.24,5.24,0,0,0,5.15-3.51.51.51,0,0,1,.64.1,9.14,9.14,0,0,1-1.18,3.36,4.75,4.75,0,0,0-.86.25,14.47,14.47,0,0,1-3.9.57A10.86,10.86,0,0,1,43.37,134a7.92,7.92,0,0,1-3.5-6.76A8.15,8.15,0,0,1,43,120.69Z" transform="translate(-39.87 -36.4)"/><path id="H" class="cls-2" d="M129.1,109.58c-1,0-1.1,0-1.1.65v2.87c0,2.14.11,2.42,1.34,2.54l.63.06a.38.38,0,0,1,0,.51c-1.18,0-1.93-.06-2.78-.06s-1.69,0-2.54.06a.38.38,0,0,1,0-.51l.38-.06c1.22-.2,1.27-.4,1.27-2.54v-7.33c0-2.14-.16-2.48-1.3-2.56l-.57,0c-.13-.08-.08-.44,0-.5,1.07,0,1.82.06,2.76.06s1.6,0,2.54-.06c.13.06.17.42,0,.5l-.41,0c-1.27.12-1.32.42-1.32,2.56v2.34c0,.63.05.65,1.1.65h6.26c1,0,1.1,0,1.1-.65v-2.34c0-2.14-.05-2.44-1.34-2.56l-.41,0c-.14-.08-.09-.44,0-.5,1,0,1.75.06,2.65.06s1.6,0,2.58-.06c.14.06.18.42.05.5l-.46,0c-1.27.12-1.32.42-1.32,2.56v7.33c0,2.14.05,2.4,1.32,2.54l.52.06c.14.09.09.45,0,.51-1.05,0-1.8-.06-2.65-.06s-1.69,0-2.65.06a.37.37,0,0,1,0-.51l.41-.06c1.34-.2,1.34-.4,1.34-2.54v-2.87c0-.61-.05-.65-1.1-.65Z" transform="translate(-39.87 -36.4)"/><path id="S" class="cls-2" d="M117,116.42a8.67,8.67,0,0,1-3.75-.75,8.16,8.16,0,0,1-.65-2.85c.12-.14.48-.18.58-.06a4.15,4.15,0,0,0,4.13,3c2,0,3-1.12,3-2.34,0-.9-.21-1.89-2-2.85l-2.28-1.26c-1.2-.67-2.59-1.83-2.59-3.5,0-1.94,1.77-3.51,4.9-3.51a11,11,0,0,1,2.23.27,3.82,3.82,0,0,0,.84.12,7.57,7.57,0,0,1,.43,2.48.53.53,0,0,1-.6.07A3,3,0,0,0,118,103c-2.36,0-2.86,1.32-2.86,2.26,0,1.18,1.15,2,2,2.5l1.92,1c1.51.79,3,2,3,3.91C122.12,114.89,120.13,116.42,117,116.42Z" transform="translate(-39.87 -36.4)"/><path id="I-2" data-name="I" class="cls-2" d="M106.88,105.81c0-2.16,0-2.5-1.38-2.6l-.56,0c-.14-.08-.09-.44,0-.5,1.13,0,1.9.06,2.85.06s1.67,0,2.8-.06c.14.06.18.42.05.5l-.57,0c-1.33.1-1.38.44-1.38,2.6v7.25c0,2.16,0,2.44,1.38,2.58l.57.06a.37.37,0,0,1-.05.51c-1.13,0-1.9-.06-2.8-.06s-1.72,0-2.85.06a.37.37,0,0,1,0-.51l.56-.06c1.34-.14,1.38-.42,1.38-2.58Z" transform="translate(-39.87 -36.4)"/><path id="T" class="cls-2" d="M97.81,113.1c0,2.14,0,2.44,1.27,2.54l.68.06a.39.39,0,0,1-.05.51c-1.2,0-1.92-.06-2.77-.06s-1.59,0-2.94.06a.34.34,0,0,1,0-.51l.76-.06c1.21-.1,1.31-.4,1.31-2.54V104c0-.63,0-.65-.63-.65H94.27a4.45,4.45,0,0,0-2.6.51,3.57,3.57,0,0,0-1,1.4.44.44,0,0,1-.56-.14,21.13,21.13,0,0,0,.81-3c.06,0,.34-.07.4,0,.13.65.83.63,1.8.63h8.58c1.14,0,1.33,0,1.65-.57.1,0,.34,0,.38.06a11.68,11.68,0,0,0-.32,3.09c-.08.17-.44.17-.55,0-.06-.51-.21-1.26-.53-1.48a4.33,4.33,0,0,0-2.46-.51h-1.5c-.63,0-.61,0-.61.69Z" transform="translate(-39.87 -36.4)"/><path id="I-3" data-name="I" class="cls-2" d="M85.27,105.81c0-2.16,0-2.5-1.38-2.6l-.56,0c-.14-.08-.09-.44,0-.5,1.13,0,1.9.06,2.85.06s1.67,0,2.8-.06c.14.06.18.42,0,.5l-.57,0c-1.33.1-1.38.44-1.38,2.6v7.25c0,2.16,0,2.44,1.38,2.58l.57.06a.37.37,0,0,1,0,.51c-1.13,0-1.9-.06-2.8-.06s-1.72,0-2.85.06a.37.37,0,0,1,0-.51l.56-.06c1.34-.14,1.38-.42,1.38-2.58Z" transform="translate(-39.87 -36.4)"/><path id="R" class="cls-2" d="M81.82,115.7l-.57,0-.31,0c-.83-.14-1.16-.88-1.55-1.56l-2-3.41c-.34-.56-.7-1.33-1.47-1.43,2-.24,3.81-1.4,3.81-3.39,0-2.29-2.27-3.31-4.56-3.31-1.37,0-2.63,0-4,0-.77,0-1.69,0-2.46,0-.43,0-.43.09-.43.33s.15.25.6.28c1.63.09,1.57.39,1.57,1.79v8.92c0,1.28.11,1.66-1.23,1.78l-.32,0-.57.06a.37.37,0,0,0,0,.51l.84,0c.74,0,1.48-.08,2.23-.08s1.46.06,2.19.08h0l.84,0a.37.37,0,0,0,0-.51l-.57-.06-.32,0c-1.35-.09-1.27-.47-1.27-1.78v-3.36c0-.2,0-.72.12-.87s.34-.11.53-.11c1.84,0,1.81.17,2.68,1.7l2.37,4.25c.19.33.33.75.82.75h2l.83,0A.37.37,0,0,0,81.82,115.7ZM73.58,109c-.41,0-1.23.15-1.23-.4v-3.9c0-1.53.05-1.75,1.88-1.75,2.15,0,3.48,1.09,3.48,3.1a2.59,2.59,0,0,1-1.11,2.23A5,5,0,0,1,73.58,109Z" transform="translate(-39.87 -36.4)"/><path id="B-2" data-name="B" class="cls-2" d="M55.51,103.47c0-1.77-.12-2.24-1.31-2.33l-.83-.06c-.14-.11-.1-.58,0-.59,1.43-.13,3.23-.19,5.69-.19a11,11,0,0,1,4.45.66,3.14,3.14,0,0,1,2,3c0,1.72-1.11,2.6-2.7,3.27,0,.23.21.31.5.35a4.1,4.1,0,0,1,3.55,4c0,2.77-2.28,4.63-7,4.63-.77,0-2.06-.07-3.18-.07s-2.06,0-3,.07a.43.43,0,0,1-.05-.6l.48-.07c1.4-.21,1.45-.48,1.45-3Zm2.17,3.16c0,.67,0,.72,1.38.67,2.69-.09,4.15-.81,4.15-3S61.28,101,59.27,101a3.47,3.47,0,0,0-1.22.15c-.26.07-.37.19-.37.62Zm0,5.53a4.23,4.23,0,0,0,.56,2.6,2.72,2.72,0,0,0,2.09.67c2.35,0,4.15-1,4.15-3.34,0-1.88-1.06-4.07-5.27-4.07-1.42,0-1.53.14-1.53.62Z" transform="translate(-39.87 -36.4)"/></g><path id="White_Symbol_Bkgd" data-name="White Symbol Bkgd" class="cls-2" d="M64.87,88.4c14.31,0,34.1,8.06,48.47,8.06,10.24,0,20.25-2.74,25.94-6.77a43.55,43.55,0,1,0-85.89-.08A71,71,0,0,1,64.87,88.4Z" transform="translate(-39.87 -36.4)"/><g id="Gold_Sunrays" data-name="Gold Sunrays"><polygon class="cls-17" points="84.61 35.96 86.33 36.67 90.15 34.01 84.61 35.96"/><path class="cls-17" d="M60.31,69.38l-4.52-1.59.22-.56,5.1,1.7h0l.67-.38.27-.17L56.51,66l.24-.58,12.4,5,.41-.17-12.3-6,.27-.57,13,6.07.18-.09L58.11,62.52l.26-.54,18.26,9.93c.15-.27.46-.78.62-1A162.89,162.89,0,0,0,63.61,59.44,163.41,163.41,0,0,0,79,68.34c.28-.35.51-.63.81-1L64.24,53.66l.42-.43L77.23,64,65.58,52.28l.44-.45L79.09,64.47,66.92,51l.47-.42L78.63,62.59,68.37,49.65l.44-.4L82,65.26c.34-.29.62-.51,1-.78a162,162,0,0,0-8.33-15.63A162.22,162.22,0,0,0,85.49,62.8c.38-.22.77-.42,1.16-.62l-.06,0L77.36,43.73l.55-.24,7.64,14.65L79.13,43l.57-.26,7.39,16.62L80.86,42.23l.59-.21L87.37,57.4,82.7,41.56l.56-.21L89.41,61v0h0c.41-.14.83-.26,1.25-.38a162.1,162.1,0,0,0-1.87-17.5,162.67,162.67,0,0,0,4.83,16.92c.43-.05.87-.1,1.3-.13v0h0l0,0L93.28,39.37h.6l1.6,16.43L95.2,39.31l.63,0,.62,18.18.63-18.18.63,0-.28,16.48L99,39.36h.6L98,59.9l0,0h0c.43,0,.85.07,1.27.12a161.52,161.52,0,0,0,4.82-16.9,162.52,162.52,0,0,0-1.86,17.46l1.25.37,6.13-19.58.57.21-4.68,15.84,5.92-15.38.59.21-6.23,17.09,7.39-16.62.58.26L107.3,58.21l7.64-14.65.55.24L106.3,62.15h0c.38.19.75.38,1.12.59a163.77,163.77,0,0,0,10.82-13.89A162,162,0,0,0,110,64.39c.35.26.7.54,1,.83l13-15.84.45.4L114.18,62.72l11.25-12,.46.42L113.72,64.6,126.8,52l.43.45L115.59,64.08l12.57-10.72.41.43L113.19,67.35h0c.27.3.53.61.78.92a161.85,161.85,0,0,0,15.27-8.84,161.92,161.92,0,0,0-13.53,11.33c.19.31.49.85.67,1.18l18-9.8.26.54-14.36,8.15,14.94-7,.27.57-13.91,6.78.26.09L136,65.59l.24.58-13.16,5.6.24.11L132.09,69l1.33-.92.43.33,2.89-1L137,68l-2.5.87,3.61,2.76,1.16.64a44.12,44.12,0,0,0-86,1l.16-.08.53-.24.33-.15Z" transform="translate(-39.87 -36.4)"/></g><path id="Blue_Mountains_Water" data-name="Blue Mountains Water" class="cls-18" d="M53,90.55a72.66,72.66,0,0,1,11.94-1.3c14.31,0,34.1,8.06,48.47,8.06,10.53,0,20.81-2.89,26.41-7.1a44.4,44.4,0,0,0-.54-18l-6-3.34-7,4.93L121.5,72c-1.6.81-11.48,7.41-11.48,7.41l-3.78-2.74-4.07-.81L96.75,71.9l-6.22,4.26s-6.93,4-7.17,4S75,73.75,75,73.75l-3.75-4c-.63.4-3.18,1.57-3.18,1.57l-.13,0-2.47-.77-3-1.58-9.1,4.12-.16.08A44.37,44.37,0,0,0,53,90.55Z" transform="translate(-39.87 -36.4)"/><rect class="cls-19" x="136.65" width="1" height="102.87"/></g></g></svg>
